<?xml version="1.0" encoding="UTF-8" standalone="no"?>
<!-- Created with Inkscape (http://www.inkscape.org/) -->

<svg
   version="1.1"
   id="svg1"
   width="183.30708"
   height="122.83466"
   viewBox="0 0 183.30708 122.83466"
   sodipodi:docname="ipi-logo.svg"
   inkscape:version="1.3.2 (1:1.3.2+202311252150+091e20ef0f)"
   xmlns:inkscape="http://www.inkscape.org/namespaces/inkscape"
   xmlns:sodipodi="http://sodipodi.sourceforge.net/DTD/sodipodi-0.dtd"
   xmlns="http://www.w3.org/2000/svg"
   xmlns:svg="http://www.w3.org/2000/svg">
  <defs
     id="defs1" />
  <sodipodi:namedview
     id="namedview1"
     pagecolor="#ffffff"
     bordercolor="#000000"
     borderopacity="0.25"
     inkscape:showpageshadow="2"
     inkscape:pageopacity="0.0"
     inkscape:pagecheckerboard="0"
     inkscape:deskcolor="#d1d1d1"
     inkscape:zoom="9.1213059"
     inkscape:cx="91.653543"
     inkscape:cy="61.449535"
     inkscape:window-width="2560"
     inkscape:window-height="1403"
     inkscape:window-x="0"
     inkscape:window-y="0"
     inkscape:window-maximized="1"
     inkscape:current-layer="g1">
    <inkscape:page
       x="0"
       y="0"
       inkscape:label="1"
       id="page1"
       width="183.30708"
       height="122.83466"
       margin="0"
       bleed="0" />
  </sodipodi:namedview>
  <g
     id="g1"
     inkscape:groupmode="layer"
     inkscape:label="1">
    <path
       id="path1"
       d="m 26.219,26.219 h 85.043 V 65.906 H 26.219 Z m 76.539,-14.172 v 14.172 m 0,39.687 v 14.172 m 8.504,-14.172 14.172,14.172 M 111.262,34.723 h 14.172 m -14.172,-8.504 14.172,-14.172 m -45.356,0 V 26.219 M 57.402,12.047 v 14.172 m 22.676,39.687 v 14.172 m -22.676,0 V 65.906 m -22.679,0 v 14.172 m -22.676,0 14.172,-14.172 M 12.047,34.723 H 26.219 M 34.723,12.047 V 26.219 M 12.047,12.047 26.219,26.219 M 12.047,57.402 h 14.172 m 85.043,0 h 14.172"
       style="fill:#ffffff;fill-opacity:1;fill-rule:nonzero;stroke:#000000;stroke-width:1.41732;stroke-linecap:butt;stroke-linejoin:miter;stroke-miterlimit:4;stroke-dasharray:none;stroke-opacity:1"
       transform="scale(1.3333333)" />
    <path
       id="path2"
       d="m 41.66,51.962 h -2.672 l -7.562,-1.25 v -3.484 l 0.89,-0.094 c 1.86,-0.172 2.375,-0.906 2.375,-3.516 v -6.203 c 0,-2.453 -0.265,-2.922 -1.89,-3.266 l -1.375,-0.296 v -3.485 h 13.453 v 3.485 l -1.328,0.296 C 41.91,34.54 41.66,34.962 41.66,37.415 Z m -3.75,9.797 c -2.281,0 -4.25,-1.938 -4.25,-4.219 0,-2.281 1.797,-4.125 4.078,-4.125 2.328,0 4.266,1.938 4.266,4.266 0,2.265 -1.766,4.078 -4.094,4.078 z M 60.551,44.04 h -11.75 l -2.016,-4.641 h 11.828 z m 13,-1.797 h 4.078 c 7.875,0 12.047,3 12.047,8.672 0,2.844 -1.203,5.375 -3.36,6.891 -1.843,1.375 -4.125,1.843 -8.64,1.843 H 62.238 v -3.531 l 0.86,-0.078 c 2.406,-0.266 2.922,-0.859 2.922,-3.609 V 37.587 c 0,-2.75 -0.516,-3.344 -2.922,-3.609 l -0.86,-0.079 v -3.531 h 15.094 v 3.531 l -0.859,0.079 c -2.407,0.265 -2.922,0.859 -2.922,3.609 z m 0,10.313 c 0,1.547 0.047,2.015 0.297,2.359 0.297,0.484 1.328,0.781 2.625,0.781 2.922,0 4.937,-1.89 4.937,-4.687 0,-3.141 -2.312,-4.953 -6.437,-4.953 -0.391,0 -0.735,0 -1.422,0.093 z M 94.578,37.587 c 0,-1.625 -0.125,-2.281 -0.516,-2.703 -0.39,-0.469 -1.374,-0.813 -2.406,-0.906 l -1.031,-0.079 v -3.531 h 15.437 v 3.531 l -1.031,0.079 c -1.031,0.093 -2.015,0.437 -2.406,0.906 -0.391,0.422 -0.516,1.078 -0.516,2.703 v 14.844 c 0,1.625 0.125,2.281 0.516,2.703 0.391,0.469 1.375,0.812 2.406,0.906 l 1.031,0.078 v 3.531 H 90.625 v -3.531 l 1.031,-0.078 c 1.032,-0.094 2.016,-0.437 2.406,-0.906 0.391,-0.422 0.516,-1.078 0.516,-2.703 z"
       style="fill:#000000;fill-opacity:1;fill-rule:nonzero;stroke:none"
       transform="matrix(1.3333333,0,0,-1.3333333,0,122.83466)" />
    <path
       id="path3"
       d="m 20.551,57.402 c 0,4.696 -3.809,8.504 -8.504,8.504 -4.695,0 -8.504,-3.808 -8.504,-8.504 0,-4.699 3.809,-8.504 8.504,-8.504 4.695,0 8.504,3.805 8.504,8.504 z"
       style="fill:#37abc8;fill-opacity:1;fill-rule:nonzero;stroke:#000000;stroke-width:1.13386;stroke-linecap:butt;stroke-linejoin:miter;stroke-miterlimit:4;stroke-dasharray:none;stroke-opacity:1"
       transform="scale(1.3333333)" />
    <path
       id="path4"
       d="m 20.551,12.047 c 0,4.695 -3.809,8.504 -8.504,8.504 -4.695,0 -8.504,-3.809 -8.504,-8.504 0,-4.695 3.809,-8.504 8.504,-8.504 4.695,0 8.504,3.809 8.504,8.504 z"
       style="fill:#37abc8;fill-opacity:1;fill-rule:nonzero;stroke:#000000;stroke-width:1.13386;stroke-linecap:butt;stroke-linejoin:miter;stroke-miterlimit:4;stroke-dasharray:none;stroke-opacity:1"
       transform="scale(1.3333333)" />
    <path
       id="path5"
       d="m 133.938,12.047 c 0,4.695 -3.809,8.504 -8.504,8.504 -4.696,0 -8.504,-3.809 -8.504,-8.504 0,-4.695 3.808,-8.504 8.504,-8.504 4.695,0 8.504,3.809 8.504,8.504 z"
       style="fill:#37abc8;fill-opacity:1;fill-rule:nonzero;stroke:#000000;stroke-width:1.13386;stroke-linecap:butt;stroke-linejoin:miter;stroke-miterlimit:4;stroke-dasharray:none;stroke-opacity:1"
       transform="scale(1.3333333)" />
    <path
       id="path6"
       d="m 133.938,80.078 c 0,4.695 -3.809,8.504 -8.504,8.504 -4.696,0 -8.504,-3.809 -8.504,-8.504 0,-4.695 3.808,-8.504 8.504,-8.504 4.695,0 8.504,3.809 8.504,8.504 z"
       style="fill:#37abc8;fill-opacity:1;fill-rule:nonzero;stroke:#000000;stroke-width:1.13386;stroke-linecap:butt;stroke-linejoin:miter;stroke-miterlimit:4;stroke-dasharray:none;stroke-opacity:1"
       transform="scale(1.3333333)" />
    <path
       id="path7"
       d="m 20.551,80.078 c 0,4.695 -3.809,8.504 -8.504,8.504 -4.695,0 -8.504,-3.809 -8.504,-8.504 0,-4.695 3.809,-8.504 8.504,-8.504 4.695,0 8.504,3.809 8.504,8.504 z"
       style="fill:#37abc8;fill-opacity:1;fill-rule:nonzero;stroke:#000000;stroke-width:1.13386;stroke-linecap:butt;stroke-linejoin:miter;stroke-miterlimit:4;stroke-dasharray:none;stroke-opacity:1"
       transform="scale(1.3333333)" />
    <path
       id="path8"
       d="m 20.551,34.723 c 0,4.699 -3.809,8.504 -8.504,8.504 -4.695,0 -8.504,-3.805 -8.504,-8.504 0,-4.696 3.809,-8.504 8.504,-8.504 4.695,0 8.504,3.808 8.504,8.504 z"
       style="fill:#37abc8;fill-opacity:1;fill-rule:nonzero;stroke:#000000;stroke-width:1.13386;stroke-linecap:butt;stroke-linejoin:miter;stroke-miterlimit:4;stroke-dasharray:none;stroke-opacity:1"
       transform="scale(1.3333333)" />
    <path
       id="path9"
       d="m 43.227,12.047 c 0,4.695 -3.805,8.504 -8.504,8.504 -4.696,0 -8.504,-3.809 -8.504,-8.504 0,-4.695 3.808,-8.504 8.504,-8.504 4.699,0 8.504,3.809 8.504,8.504 z"
       style="fill:#37abc8;fill-opacity:1;fill-rule:nonzero;stroke:#000000;stroke-width:1.13386;stroke-linecap:butt;stroke-linejoin:miter;stroke-miterlimit:4;stroke-dasharray:none;stroke-opacity:1"
       transform="scale(1.3333333)" />
    <path
       id="path10"
       d="m 65.906,12.047 c 0,4.695 -3.808,8.504 -8.504,8.504 -4.699,0 -8.504,-3.809 -8.504,-8.504 0,-4.695 3.805,-8.504 8.504,-8.504 4.696,0 8.504,3.809 8.504,8.504 z"
       style="fill:#37abc8;fill-opacity:1;fill-rule:nonzero;stroke:#000000;stroke-width:1.13386;stroke-linecap:butt;stroke-linejoin:miter;stroke-miterlimit:4;stroke-dasharray:none;stroke-opacity:1"
       transform="scale(1.3333333)" />
    <path
       id="path11"
       d="m 88.582,12.047 c 0,4.695 -3.809,8.504 -8.504,8.504 -4.695,0 -8.504,-3.809 -8.504,-8.504 0,-4.695 3.809,-8.504 8.504,-8.504 4.695,0 8.504,3.809 8.504,8.504 z"
       style="fill:#37abc8;fill-opacity:1;fill-rule:nonzero;stroke:#000000;stroke-width:1.13386;stroke-linecap:butt;stroke-linejoin:miter;stroke-miterlimit:4;stroke-dasharray:none;stroke-opacity:1"
       transform="scale(1.3333333)" />
    <path
       id="path12"
       d="m 43.227,80.078 c 0,4.695 -3.805,8.504 -8.504,8.504 -4.696,0 -8.504,-3.809 -8.504,-8.504 0,-4.695 3.808,-8.504 8.504,-8.504 4.699,0 8.504,3.809 8.504,8.504 z"
       style="fill:#37abc8;fill-opacity:1;fill-rule:nonzero;stroke:#000000;stroke-width:1.13386;stroke-linecap:butt;stroke-linejoin:miter;stroke-miterlimit:4;stroke-dasharray:none;stroke-opacity:1"
       transform="scale(1.3333333)" />
    <path
       id="path13"
       d="m 65.906,80.078 c 0,4.695 -3.808,8.504 -8.504,8.504 -4.699,0 -8.504,-3.809 -8.504,-8.504 0,-4.695 3.805,-8.504 8.504,-8.504 4.696,0 8.504,3.809 8.504,8.504 z"
       style="fill:#37abc8;fill-opacity:1;fill-rule:nonzero;stroke:#000000;stroke-width:1.13386;stroke-linecap:butt;stroke-linejoin:miter;stroke-miterlimit:4;stroke-dasharray:none;stroke-opacity:1"
       transform="scale(1.3333333)" />
    <path
       id="path14"
       d="m 88.582,80.078 c 0,4.695 -3.809,8.504 -8.504,8.504 -4.695,0 -8.504,-3.809 -8.504,-8.504 0,-4.695 3.809,-8.504 8.504,-8.504 4.695,0 8.504,3.809 8.504,8.504 z"
       style="fill:#37abc8;fill-opacity:1;fill-rule:nonzero;stroke:#000000;stroke-width:1.13386;stroke-linecap:butt;stroke-linejoin:miter;stroke-miterlimit:4;stroke-dasharray:none;stroke-opacity:1"
       transform="scale(1.3333333)" />
    <path
       id="path15"
       d="m 133.938,34.723 c 0,4.699 -3.809,8.504 -8.504,8.504 -4.696,0 -8.504,-3.805 -8.504,-8.504 0,-4.696 3.808,-8.504 8.504,-8.504 4.695,0 8.504,3.808 8.504,8.504 z"
       style="fill:#37abc8;fill-opacity:1;fill-rule:nonzero;stroke:#000000;stroke-width:1.13386;stroke-linecap:butt;stroke-linejoin:miter;stroke-miterlimit:4;stroke-dasharray:none;stroke-opacity:1"
       transform="scale(1.3333333)" />
    <path
       id="path16"
       d="m 111.262,12.047 c 0,4.695 -3.809,8.504 -8.504,8.504 -4.699,0 -8.504,-3.809 -8.504,-8.504 0,-4.695 3.805,-8.504 8.504,-8.504 4.695,0 8.504,3.809 8.504,8.504 z"
       style="fill:#37abc8;fill-opacity:1;fill-rule:nonzero;stroke:#000000;stroke-width:1.13386;stroke-linecap:butt;stroke-linejoin:miter;stroke-miterlimit:4;stroke-dasharray:none;stroke-opacity:1"
       transform="scale(1.3333333)" />
    <path
       id="path17"
       d="m 111.262,80.078 c 0,4.695 -3.809,8.504 -8.504,8.504 -4.699,0 -8.504,-3.809 -8.504,-8.504 0,-4.695 3.805,-8.504 8.504,-8.504 4.695,0 8.504,3.809 8.504,8.504 z"
       style="fill:#37abc8;fill-opacity:1;fill-rule:nonzero;stroke:#000000;stroke-width:1.13386;stroke-linecap:butt;stroke-linejoin:miter;stroke-miterlimit:4;stroke-dasharray:none;stroke-opacity:1"
       transform="scale(1.3333333)" />
    <path
       id="path18"
       d="m 133.938,57.402 c 0,4.696 -3.809,8.504 -8.504,8.504 -4.696,0 -8.504,-3.808 -8.504,-8.504 0,-4.699 3.808,-8.504 8.504,-8.504 4.695,0 8.504,3.805 8.504,8.504 z"
       style="fill:#37abc8;fill-opacity:1;fill-rule:nonzero;stroke:#000000;stroke-width:1.13386;stroke-linecap:butt;stroke-linejoin:miter;stroke-miterlimit:4;stroke-dasharray:none;stroke-opacity:1"
       transform="scale(1.3333333)" />
    <path
       id="path19"
       d="M 122.598,14.883 V 77.242 H 14.883 V 60.234 c 0,0 2.832,-2.832 2.832,-5.668 0,-2.836 0,-8.504 -2.832,-8.504 H 9.211 c -2.832,0 -2.832,5.668 -2.832,8.504 0,2.836 2.832,5.668 2.832,5.668 v 19.844 c 0,2.836 0,2.836 2.836,2.836 h 113.387 c 2.836,0 2.836,0 2.836,-2.836 V 12.047 c 0,-2.836 0,-2.836 -2.836,-2.836 H 12.047 c -2.836,0 -2.836,0 -2.836,2.836 v 28.348 l 2.836,2.832 2.836,-2.832 V 14.883 Z"
       style="fill:#00aa00;fill-opacity:1;fill-rule:nonzero;stroke:#000000;stroke-width:1.41732;stroke-linecap:butt;stroke-linejoin:miter;stroke-miterlimit:4;stroke-dasharray:none;stroke-opacity:1"
       transform="scale(1.3333333)" />
    <path
       id="path20"
       d="m 9.211,40.395 2.836,2.832 2.836,-2.832 m -2.836,5.667 v -2.835"
       style="fill:none;stroke:#ff0000;stroke-width:1.41732;stroke-linecap:square;stroke-linejoin:miter;stroke-miterlimit:4;stroke-dasharray:none;stroke-opacity:1"
       transform="scale(1.3333333)" />
  </g>
</svg>
